<svg xmlns="http://www.w3.org/2000/svg" width="22" height="22" viewBox="0 0 22 22">
    <path fill="#CE1225" fill-rule="nonzero" d="M14.1 11.3c-.2-.2-.2-.5 0-.7l7.5-7.5c.2-.2.3-.5.3-.7 0-.2-.1-.5-.3-.7L20.2.3c-.2-.2-.5-.3-.7-.3-.3 0-.5.1-.7.3l-7.5 7.5c-.2.2-.5.2-.7 0L3.1.3C2.9.1 2.6 0 2.4 0c-.2 0-.5.1-.7.3L.3 1.7c-.2.2-.3.5-.3.7 0 .2.1.5.3.7l7.5 7.5c.2.2.2.5 0 .7L.3 18.8c-.2.2-.3.5-.3.7 0 .2.1.5.3.7l1.4 1.4c.2.2.5.3.7.3.2 0 .5-.1.7-.3l7.5-7.5c.2-.2.5-.2.7 0l7.5 7.5c.2.2.5.3.7.3.2 0 .5-.1.7-.3l1.4-1.4c.2-.2.3-.5.3-.7 0-.2-.1-.5-.3-.7l-7.5-7.5z"/>
</svg>
