<svg xmlns="http://www.w3.org/2000/svg" xmlns:xlink="http://www.w3.org/1999/xlink" width="40" height="40" viewBox="0 0 40 40">
    <defs>
        <filter id="a" width="119.4%" height="119.4%" x="-9.7%" y="-6.9%" filterUnits="objectBoundingBox">
            <feOffset dy="1" in="SourceAlpha" result="shadowOffsetOuter1"/>
            <feGaussianBlur in="shadowOffsetOuter1" result="shadowBlurOuter1" stdDeviation="1"/>
            <feColorMatrix in="shadowBlurOuter1" result="shadowMatrixOuter1" values="0 0 0 0 0 0 0 0 0 0 0 0 0 0 0 0 0 0 0.5 0"/>
            <feMerge>
                <feMergeNode in="shadowMatrixOuter1"/>
                <feMergeNode in="SourceGraphic"/>
            </feMerge>
        </filter>
        <path id="b" d="M0 18C0 8.059 8.059 0 18 0s18 8.059 18 18-8.059 18-18 18S0 27.941 0 18z"/>
    </defs>
    <g fill="none" fill-rule="evenodd" filter="url(#a)" transform="translate(2 1)">
        <mask id="c" fill="#fff">
            <use xlink:href="#b"/>
        </mask>
        <use fill="#1F1F1F" xlink:href="#b"/>
        <path fill="#FFF" d="M18 8.4c-2.606 0-2.934.011-3.958.058-1.022.047-1.72.209-2.33.446a4.7 4.7 0 0 0-1.7 1.107 4.713 4.713 0 0 0-1.108 1.7c-.238.611-.4 1.309-.446 2.33-.046 1.024-.058 1.352-.058 3.96 0 2.606.012 2.933.058 3.957.047 1.022.209 1.72.446 2.33a4.704 4.704 0 0 0 1.107 1.7 4.7 4.7 0 0 0 1.7 1.108c.611.238 1.309.4 2.33.446 1.025.047 1.352.058 3.959.058s2.933-.011 3.957-.058c1.022-.047 1.72-.208 2.332-.446a4.697 4.697 0 0 0 1.699-1.108 4.713 4.713 0 0 0 1.108-1.7c.236-.61.398-1.309.446-2.33.046-1.024.058-1.35.058-3.958 0-2.607-.012-2.934-.058-3.958-.048-1.022-.21-1.72-.446-2.33a4.712 4.712 0 0 0-1.108-1.701 4.692 4.692 0 0 0-1.7-1.107c-.612-.237-1.31-.4-2.332-.446-1.024-.047-1.35-.058-3.958-.058H18zm-.86 1.73H18c2.564 0 2.868.01 3.88.055.936.043 1.444.2 1.783.33.448.175.767.383 1.103.719.336.336.544.656.718 1.104.132.338.288.846.33 1.782.047 1.012.057 1.316.057 3.878 0 2.562-.01 2.866-.056 3.878-.043.936-.2 1.444-.33 1.782a2.968 2.968 0 0 1-.72 1.103 2.969 2.969 0 0 1-1.102.718c-.338.132-.847.288-1.783.33-1.012.047-1.316.057-3.88.057-2.563 0-2.866-.01-3.878-.056-.936-.044-1.444-.2-1.783-.331a2.973 2.973 0 0 1-1.104-.718 2.975 2.975 0 0 1-.718-1.104c-.132-.338-.288-.846-.331-1.782-.046-1.012-.055-1.316-.055-3.88 0-2.563.009-2.866.055-3.878.043-.936.2-1.444.33-1.782.175-.448.383-.768.719-1.104a2.98 2.98 0 0 1 1.104-.718c.338-.132.847-.288 1.783-.331.885-.04 1.228-.052 3.018-.054v.002zm5.985 1.594a1.152 1.152 0 1 0 0 2.305 1.152 1.152 0 0 0 0-2.305zm-5.124 1.346a4.93 4.93 0 1 0 0 9.86 4.93 4.93 0 0 0 0-9.86zm0 1.73a3.2 3.2 0 1 1 0 6.4 3.2 3.2 0 0 1 0-6.4z" mask="url(#c)"/>
    </g>
</svg>
