<svg xmlns="http://www.w3.org/2000/svg" width="313" height="201" viewBox="0 0 313 201">
    <path fill="#CE1225" fill-rule="evenodd" d="M280.41 0h26.446L278.99 78.144h31.377c-1.245 4.382-4.109 7.62-8.591 9.711-3.138 1.495-6.5 2.242-10.086 2.242h-28.762c-7.37 0-11.056-2.515-11.056-7.546 0-1.295.274-2.764.821-4.407l9.54-26.895h-36.135c1.643 1.096 2.988 3.1 4.034 6.014 1.046 2.914 1.47 5.441 1.27 7.583-.697 8.317-4.358 14.841-10.982 19.573-6.325 4.532-14.543 6.823-24.653 6.873-11.754.1-20.794-2.216-27.12-6.948-1.959-1.457-3.578-3.074-4.855-4.85-1.42 3.703-4.134 6.49-8.143 8.361-3.138 1.495-6.5 2.242-10.086 2.242h-28.762c-7.37 0-11.056-2.515-11.056-7.546 0-1.295.274-2.764.821-4.407L134.283 0h26.446l-27.866 78.144h30.043c-1.8-3.015-2.7-6.451-2.7-10.31 0-1.345.125-2.69.374-4.034 1.295-7.52 5.03-13.423 11.206-17.706 6.574-4.532 15.34-6.798 26.297-6.798h68.389L280.41 0zm-24.656 172.03c-.521.995-1.363 1.763-2.525 2.305a7.871 7.871 0 0 1-3.427.762h-9.776c-2.505 0-3.757-.855-3.757-2.565 0-.44.093-.94.279-1.498l9.42-26.558h8.988l-9.47 26.558h10.511l9.42-26.558h8.988l-9.47 26.558h10.664c-.424 1.49-1.397 2.59-2.92 3.301a7.871 7.871 0 0 1-3.428.762h-9.775c-2.506 0-3.758-.855-3.758-2.565 0-.16.012-.327.036-.502zm-38.901.304c-.31.635-.863 1.2-1.659 1.696-1.15.711-2.353 1.067-3.605 1.067h-9.725c-2.573 0-3.86-1.067-3.86-3.2 0-.541.11-1.125.331-1.751l2.87-8.252h-5.41l-2.817 7.287c-.474 1.235-1.499 1.853-3.073 1.853h-2.691l3.326-9.14c-1.05-.237-1.9-.766-2.552-1.587a4.426 4.426 0 0 1-.977-2.831c0-1.947.905-3.454 2.717-4.52 1.506-.88 3.3-1.32 5.382-1.32h4.114l-2.133 6.195h14.04l-4.62 13.203h10.447a6.56 6.56 0 0 1 .242-.838l4.418-12.365h9.217l-4.697 13.203h10.36c-.441 1.49-1.355 2.59-2.743 3.301a7.067 7.067 0 0 1-3.25.762h-10.03c-2.305 0-3.512-.921-3.622-2.763zm-117.74-56.089H87.452l-8.086 22.852h-15.82l8.174-22.852H56.865c-8.32 20.42-21.43 30.645-39.33 30.674-4.835 0-8.805-.952-11.91-2.857C1.875 141.778 0 138.35 0 133.78c0-3.574 1.201-7.177 3.604-10.81 6.064-9.17 17.211-13.755 33.442-13.755h6.416L57.04 70.586h15.776L59.02 109.214h15.117l11.25-31.948h15.864l-11.338 31.948 35.505-.117-5.732 15.937h10.384l4.621-13.203h9.217l-4.748 13.203h4.418l4.748-13.203h9.09l-4.621 13.203h4.316l4.723-13.203h9.115l-4.595 13.203c-1.253 2.709-3.36 4.063-6.323 4.063h-12.847c-2.252 0-3.504-.745-3.758-2.235-1.236 1.49-3.022 2.235-5.358 2.235h-4.52c-2.504 0-3.757-.889-3.757-2.666 0-.112.007-.228.02-.346-1.002 2.008-2.938 3.012-5.809 3.012h-9.623c-2.742 0-4.113-.88-4.113-2.64-1.845 2.098-4.114 3.147-6.805 3.147-1.98 0-3.589-.609-4.824-1.828-1.236-1.218-1.854-2.81-1.854-4.773 0-2.68.777-4.933 2.332-6.758zm145.372 9.355c-.49 1.206-1.339 2.117-2.545 2.735a7.067 7.067 0 0 1-3.25.762h-10.029c-2.42 0-3.63-1.016-3.63-3.047 0-.071.001-.143.005-.215-.502 1.09-1.317 1.923-2.443 2.5a7.067 7.067 0 0 1-3.25.762h-10.03c-2.42 0-3.63-1.016-3.63-3.047v-.083c-.983 2.086-2.939 3.13-5.866 3.13h-9.623c-2.742 0-4.113-.88-4.113-2.64-1.845 2.098-4.113 3.147-6.805 3.147-1.98 0-3.588-.609-4.824-1.828-1.236-1.218-1.853-2.81-1.853-4.773 0-3.538 1.354-6.33 4.062-8.379 2.455-1.862 5.493-2.793 9.115-2.793h14.498l-4.773 13.203h10.295a6.56 6.56 0 0 1 .242-.838l4.418-12.365h9.217l-4.697 13.203h10.168a6.56 6.56 0 0 1 .242-.838l4.418-12.365h9.217l-4.698 13.203h9.98a7.727 7.727 0 0 1-.255-2.031c0-3.538 1.354-6.33 4.062-8.379 2.455-1.862 5.493-2.793 9.116-2.793h14.498l-4.774 13.203h10.537c-.812 2.709-2.886 4.063-6.22 4.063h-9.623c-2.743 0-4.114-.88-4.114-2.64-1.845 2.098-4.113 3.147-6.804 3.147-1.98 0-3.589-.609-4.825-1.828a5.962 5.962 0 0 1-1.416-2.176zM209.363 51.25l-9.936 28.314c-.697.05-1.519.075-2.465.075-7.969 0-11.953-2.142-11.953-6.425 0-.897.174-1.843.523-2.839l6.723-19.125h17.108zm-95.518 64.645h-5.612l-1.777 5.916c-.102.372-.152.71-.152 1.015 0 1.473 1.438 2.21 4.316 2.21l3.225-9.141zm75.816 0h-5.611l-1.778 5.916c-.101.372-.152.71-.152 1.015 0 1.473 1.439 2.21 4.317 2.21l3.224-9.141zm33.846-14.473c0 1.693-.656 3.131-1.968 4.316-1.312 1.185-2.89 1.778-4.735 1.778-1.88 0-3.475-.593-4.786-1.778-1.312-1.185-1.968-2.623-1.968-4.316 0-1.676.656-3.106 1.968-4.291 1.311-1.185 2.907-1.777 4.786-1.777 1.845 0 3.423.592 4.735 1.777 1.312 1.185 1.968 2.615 1.968 4.29zm19.347 0c0 1.693-.655 3.131-1.967 4.316s-2.89 1.778-4.736 1.778c-1.879 0-3.474-.593-4.786-1.778-1.312-1.185-1.968-2.623-1.968-4.316 0-1.676.656-3.106 1.968-4.291 1.312-1.185 2.907-1.777 4.786-1.777 1.845 0 3.424.592 4.736 1.777 1.312 1.185 1.967 2.615 1.967 4.29zm18.256 14.473H255.5l-1.777 5.916c-.102.372-.153.71-.153 1.015 0 1.473 1.44 2.21 4.317 2.21l3.224-9.141zm51.112 9.14c-.44 1.49-1.414 2.59-2.92 3.301a7.871 7.871 0 0 1-3.428.762h-10.13c-2.32 0-3.48-.762-3.48-2.285 0-.508.12-1.1.356-1.778l1.93-5.459-8.735 7.389c-2.048 1.422-3.732 2.133-5.052 2.133h-4.672l6.068-17.266h9.166l-2.869 8.125 7.744-6.348c2.1-1.71 4.376-2.53 6.83-2.462 1.66.067 2.489.947 2.489 2.64 0 .626-.136 1.329-.407 2.108l-3.275 9.14h10.385zm-271.265-8.789h-1.274c-5.772 0-10.957 1.48-15.557 4.439-5.303 3.398-7.954 7.822-7.954 13.271 0 3.78 1.684 5.669 5.054 5.669 4.218 0 8.393-2.959 12.524-8.877 3.076-4.424 5.479-9.258 7.207-14.502zm144.026 31.62c0 2.572-1.026 4.712-3.08 6.42-1.93 1.632-4.205 2.448-6.828 2.448-2.597 0-4.873-.816-6.828-2.449-2.029-1.707-3.043-3.847-3.043-6.42 0-.791.124-1.657.371-2.597h-.816c-5.962 0-11.306 2.696-16.031 8.09-4.577 5.195-6.866 10.81-6.866 16.847 0 5.072 1.893 8.919 5.678 11.541 3.266 2.276 7.558 3.414 12.877 3.414l6.902-19.297h13.842a5992.206 5992.206 0 0 1-9.203 26.31c-1.954 5.518-6.63 8.276-14.027 8.276a67.66 67.66 0 0 1-2.97-.074l3.415-9.277c-8.61 0-15.623-1.25-21.041-3.748-7.372-3.414-11.059-8.907-11.059-16.477 0-4.206 1.3-8.486 3.897-12.84 3.637-6.11 8.881-10.885 15.734-14.324 6.457-3.216 13.421-4.824 20.893-4.824h8.275c2.573 0 4.837.853 6.791 2.56 2.078 1.757 3.117 3.897 3.117 6.42zm49.686-.444c0 1.693-.656 3.131-1.968 4.316-1.312 1.185-2.89 1.778-4.735 1.778-1.88 0-3.474-.593-4.786-1.778-1.312-1.185-1.968-2.623-1.968-4.316 0-1.676.656-3.106 1.968-4.291 1.312-1.185 2.907-1.777 4.786-1.777 1.845 0 3.423.592 4.735 1.777 1.312 1.185 1.968 2.615 1.968 4.29z"/>
</svg>
